<svg id="signature" xmlns="http://www.w3.org/2000/svg" viewBox="0 0 400 200"><rect id="background" width="400" height="200" style="fill:#fafafa; stroke-width:0px;"/><g id="stripes"><polygon id="stripe1" points="0 200 0 176.46 31.57 200 0 200" style="fill:#22428d; stroke-width:0px;"/><polygon id="stripe2" points="31.57 200 0 176.46 0 150.3 74.2 200 31.57 200" style="fill:#cf0011; stroke-width:0px;"/><path id="stripe3" d="m152.4,200C86.55,169.15,0,78.27,0,78.27v72.03l74.2,49.7h78.2Z" style="fill:#22428d; stroke-width:0px;"/><path id="stripe4" d="m303.21,0h-24.69s38.22,12.8,70.85,33.59c0,0-29.69-23.95-46.16-33.59Z" style="fill:#e02430; stroke-width:0px;"/><path id="stripe5" d="m400,35.94c-1.4-4.41-45.63-35.94-45.63-35.94h-45.86c50,29.8,91.28,79.54,91.49,79.74v-43.8Z" style="fill:#22428e; stroke-width:0px;"/><path id="stripe6" d="m358.78,0h41.22v31.82s-11.82-13.96-41.22-31.82Z" style="fill:#e02430; stroke-width:0px;"/></g><g id="wcps_logo"><path d="m393.88,187.23c-.95-.04-1.88-.09-2.8-.13-.63-.02-1.25-.05-1.88-.05-2.23-.01-4.46-.06-6.69-.02-2.12.04-4.24.14-6.35.27-1.71.1-3.41.24-5.11.43-5.33.59-10.58,1.54-15.61,3.47-1,.38-1.98.82-2.94,1.3-.43.22-.84.36-1.3.22-.26-.08-.5-.24-.75-.36-3.04-1.47-6.24-2.46-9.53-3.2-2.77-.63-5.58-1.11-8.41-1.38-2.53-.24-5.07-.45-7.61-.61-3.41-.21-6.82-.21-10.24-.15-1.74.03-3.48.14-5.22.21-.04,0-.08,0-.15,0,.04-.11.07-.2.1-.29.45-1.05.91-2.1,1.35-3.15.09-.2.19-.29.42-.28,1.63.07,3.26.13,4.89.21,1.29.07,2.58.15,3.87.26,1.46.12,2.91.25,4.36.44,1.89.24,3.79.5,5.67.82,6.03,1.02,11.94,2.51,17.5,5.13,1.1.52,2.16,1.15,3.23,1.73.09.05.18.11.27.16.02-.03.04-.05.06-.08-.09-.06-.17-.12-.26-.18-1.93-1.22-3.97-2.23-6.08-3.08-3.91-1.59-7.94-2.74-12.07-3.58-2.7-.54-5.41-1-8.13-1.42-1.97-.3-3.97-.5-5.96-.68-2.09-.2-4.18-.33-6.3-.49.03-.05.06-.14.11-.22.6-1.09,1.21-2.17,1.8-3.26.09-.16.18-.2.35-.18,2.52.4,5.05.74,7.57,1.19,4.17.74,8.28,1.76,12.31,3.07,3.83,1.25,7.55,2.75,11.04,4.76,1.27.73,2.48,1.55,3.7,2.35.78.51,1.56,1.04,2.33,1.57.15.1.24.04.37-.04,1.58-1.06,3.13-2.15,4.75-3.15,3.44-2.13,7.14-3.72,10.95-5.04,4.57-1.58,9.25-2.75,14.02-3.59,2.4-.42,4.81-.75,7.22-1.11.08-.01.23.04.26.11.66,1.17,1.31,2.34,1.96,3.52,0,.02,0,.04,0,.07-.45.03-.9.04-1.36.08-2.59.21-5.18.39-7.76.66-4.33.45-8.62,1.17-12.87,2.15-4.38,1.02-8.68,2.3-12.75,4.25-1.3.62-2.53,1.37-3.8,2.07-.08.05-.16.11-.21.22.06-.02.14-.04.19-.07,3.71-2.27,7.75-3.75,11.91-4.94,3.18-.91,6.42-1.61,9.69-2.1,2.38-.35,4.76-.67,7.15-.93,1.91-.21,3.83-.32,5.74-.44,1.64-.1,3.28-.14,4.92-.23.34-.02.53.06.67.41.4,1.02.85,2.01,1.28,3.02.04.09.07.18.11.29Z" style="fill:#22428e; stroke-width:0px;"/><path d="m326.72,168.9c-1.01,3.3-2.01,6.6-3.02,9.92h-1.62c-1.12,0-2.23,0-3.35,0-.25,0-.36-.07-.43-.32-1.31-4.85-2.64-9.69-3.96-14.54-.54-1.98-1.08-3.97-1.62-5.95-.03-.09-.05-.19-.07-.3.09,0,.16-.02.22-.02,1.59,0,3.19,0,4.78,0,.21,0,.29.06.34.26.9,3.52,1.82,7.04,2.73,10.55.14.54.28,1.08.42,1.61.02.08.05.16.16.26.05-.12.11-.23.14-.35.69-2.48,1.37-4.96,2.05-7.43.42-1.53.85-3.06,1.26-4.6.06-.23.15-.31.4-.31,1.09.02,2.17.01,3.26,0,.21,0,.29.06.34.26,1.1,4.02,2.21,8.04,3.33,12.06.03.13.09.24.13.37.03,0,.06,0,.08,0,.03-.1.08-.19.1-.29,1.04-4.03,2.08-8.06,3.12-12.08.06-.23.14-.32.4-.31,1.54.02,3.09,0,4.63,0h.33c-.25.92-.49,1.81-.73,2.7-1.65,6.03-3.3,12.07-4.94,18.1-.07.24-.15.33-.41.33-1.53-.01-3.07-.02-4.6,0-.29,0-.39-.09-.47-.35-.94-3.11-1.88-6.21-2.83-9.32-.03-.09-.07-.18-.1-.27-.02,0-.05,0-.07,0Z" style="fill:#22428e; stroke-width:0px;"/><path d="m355.33,173.21c.68,1.35,1.35,2.69,2.03,4.06-.15.1-.29.21-.44.3-1.3.8-2.73,1.25-4.22,1.47-1.83.27-3.66.28-5.43-.29-3.9-1.24-6.69-3.7-7.88-7.68-1.06-3.56-.18-6.79,2.18-9.6,1.92-2.28,4.4-3.67,7.36-4.03,2.85-.36,5.59.08,8.1,1.6.09.05.17.11.25.17.02.02.04.04.07.08-.67,1.34-1.34,2.68-2.02,4.04-.08-.04-.15-.07-.21-.11-1.48-.93-3.1-1.3-4.84-1.13-1.55.15-2.96.64-4.11,1.71-3.34,3.09-2.31,8.52,1.94,10.15,2.42.93,4.8.76,7.03-.63.05-.03.1-.05.18-.1Z" style="fill:#22428e; stroke-width:0px;"/><path d="m373.57,172.45c.78.49,1.5.99,2.27,1.43,1.05.59,2.17,1,3.41.89.48-.05.98-.12,1.42-.29,1.31-.51,1.58-2.09.54-3.04-.63-.58-1.41-.92-2.17-1.3-.92-.45-1.86-.86-2.75-1.37-1.25-.72-2.26-1.69-2.85-3.04-.87-2-.33-4.58,1.31-6.23,1.41-1.43,3.13-2.15,5.14-2.16,2.28-.02,4.37.62,6.31,1.8.08.05.16.11.27.18-.65,1.28-1.29,2.54-1.9,3.74-.82-.36-1.6-.75-2.4-1.04-.96-.35-1.95-.48-2.96-.21-.77.2-1.31.64-1.46,1.48-.08.48.07.86.39,1.2.53.55,1.19.9,1.86,1.21.98.46,1.99.86,2.96,1.34,1.3.65,2.44,1.51,3.27,2.72.69,1,.94,2.1.83,3.31-.11,1.24-.43,2.41-1.18,3.42-.94,1.26-2.23,2-3.73,2.35-3.9.9-7.49.18-10.73-2.21-.19-.14-.22-.24-.09-.45.75-1.24,1.49-2.49,2.22-3.72Z" style="fill:#22428e; stroke-width:0px;"/><path d="m357.82,157.79c.4-.03.8-.07,1.19-.07,1.46-.01,2.93-.04,4.39,0,1.82.05,3.58.47,5.3,1.08.68.24,1.37.48,2.05.74.15.06.3.16.41.27.87.93,1.32,2.05,1.48,3.29.18,1.37.07,2.72-.48,4.01-.83,1.93-2.34,3.09-4.34,3.58-.77.19-1.59.25-2.39.3-.82.05-1.65.01-2.48.01h-.36v7.8h-4.77v-21.01Zm4.75,6.55c0,.85,0,1.69,0,2.54,0,.13-.03.28.18.27.97-.01,1.95.08,2.91-.21.72-.22,1.33-.58,1.7-1.27.85-1.6.05-3.43-1.71-3.94-.9-.26-1.83-.22-2.75-.23-.25,0-.32.08-.32.33.01.84,0,1.67,0,2.51Z" style="fill:#22428e; stroke-width:0px;"/><path d="m372.68,157.33c.26-.78.5-1.51.73-2.23.22-.68.44-1.36.68-2.03.1-.28.03-.42-.25-.51-2.08-.74-4.21-1.32-6.38-1.73-2.62-.49-5.26-.72-7.92-.68-.6,0-1.19.03-1.79.06-.37.02-.41.06-.4.43.04,1.4.08,2.8.12,4.2,0,.07,0,.14,0,.27-2.55-1.77-5.06-3.51-7.64-5.29.46-.11.84-.2,1.23-.28,4.92-1.09,9.84-2.17,14.75-3.27.52-.12.93-.07,1.4.2,4.66,2.62,9.34,5.22,14.01,7.82.08.05.17.1.29.17-2.95.96-5.86,1.91-8.83,2.89Z" style="fill:#e02531; stroke-width:0px;"/><path d="m394.03,188.66c-.32.52-.61,1.01-.92,1.48-.06.09-.23.15-.34.14-.86-.09-1.72-.21-2.58-.3-1.22-.12-2.43-.25-3.65-.33-2.16-.14-4.33-.27-6.5-.35-1.77-.06-3.54-.1-5.31-.05-2.26.06-4.52.16-6.76.35-4.64.39-9.2,1.18-13.6,2.78-.28.1-.52.24-.75.46-1.1,1.09-2.89,1.07-4.02,0-.18-.17-.41-.32-.64-.4-2.77-1.04-5.64-1.72-8.56-2.2-3.12-.51-6.25-.81-9.41-.91-1.9-.06-3.8-.13-5.7-.08-2.91.08-5.83.22-8.73.42-2.05.14-4.1.41-6.14.62-.1.01-.26-.02-.31-.09-.32-.49-.62-.99-.95-1.53.37-.02.7-.05,1.03-.06,2.08-.09,4.15-.19,6.23-.27,2.17-.08,4.34-.15,6.5-.18,2.13-.02,4.26-.03,6.39.03,3.27.09,6.54.35,9.77.88,3.39.56,6.7,1.38,9.82,2.84.39.18.77.37,1.15.57,1.03.53,2.05.56,3.1,0,2.65-1.42,5.49-2.31,8.42-2.93,2.8-.6,5.64-.98,8.5-1.15,1.96-.12,3.91-.18,5.87-.24,1.19-.04,2.39-.06,3.58-.03,2.91.07,5.83.17,8.74.27,1.87.07,3.74.16,5.61.25.04,0,.07,0,.16.02Z" style="fill:#e02531; stroke-width:0px;"/><path d="m358.72,156.7c-.05-1.85-.1-3.61-.15-5.42,4.82-.26,9.48.42,14.03,2.05-.57,1.72-1.13,3.42-1.71,5.19-3.89-1.78-7.96-2.17-12.17-1.81Z" style="fill:#e02531; stroke-width:0px;"/><path d="m362.57,164.34c0-.84,0-1.67,0-2.51,0-.24.07-.33.32-.33.92.01,1.85-.03,2.75.23,1.76.5,2.55,2.34,1.71,3.94-.36.69-.98,1.05-1.7,1.27-.95.29-1.93.19-2.91.21-.2,0-.18-.15-.18-.27,0-.85,0-1.69,0-2.54Z" style="fill:#fff; stroke-width:0px;"/></g></svg>